<svg xmlns="http://www.w3.org/2000/svg" xmlns:xlink="http://www.w3.org/1999/xlink" viewBox="0 0 1200 1200"><defs><style>.cls-1{fill:url(#linear-gradient);}.cls-2{fill:url(#radial-gradient);}.cls-3{fill:url(#radial-gradient-2);}.cls-4,.cls-8{fill:none;}.cls-4{stroke-miterlimit:2.71;stroke-width:20.4px;stroke:url(#radial-gradient-3);}.cls-5{fill:url(#linear-gradient-2);}.cls-6{fill:url(#radial-gradient-4);}.cls-7{fill:url(#radial-gradient-5);}.cls-8{stroke-miterlimit:1.75;stroke-width:13.14px;stroke:url(#radial-gradient-6);}</style><linearGradient id="linear-gradient" x1="660.24" y1="1128.88" x2="660.24" y2="-47.66" gradientTransform="matrix(0.68, 0, 0, -0.68, 2.43, 816.24)" gradientUnits="userSpaceOnUse"><stop offset="0" stop-color="#969696"/><stop offset="1" stop-color="#7b7b7b"/></linearGradient><radialGradient id="radial-gradient" cx="662.45" cy="707.65" r="554.93" gradientTransform="matrix(0.69, -0.09, -0.08, -0.67, 98.73, 814.62)" gradientUnits="userSpaceOnUse"><stop offset="0" stop-color="#d6d6d6"/><stop offset="1" stop-color="#bcbcbc"/></radialGradient><radialGradient id="radial-gradient-2" cx="681.8" cy="190.54" r="554.93" gradientTransform="matrix(0.68, -0.01, -0.01, -0.99, 11.53, 1165.09)" gradientUnits="userSpaceOnUse"><stop offset="0" stop-opacity="0.31"/><stop offset="1" stop-opacity="0"/></radialGradient><radialGradient id="radial-gradient-3" cx="497.99" cy="1173.15" r="569.99" gradientTransform="matrix(0.9, 0, 0, -0.88, -10.68, 1064.85)" gradientUnits="userSpaceOnUse"><stop offset="0" stop-color="#fff"/><stop offset="1" stop-color="#fff" stop-opacity="0"/></radialGradient><linearGradient id="linear-gradient-2" x1="2404.69" y1="685.63" x2="2404.69" y2="-490.9" gradientTransform="matrix(0.41, 0.15, 0.15, -0.41, -112.16, 541.72)" xlink:href="#linear-gradient"/><radialGradient id="radial-gradient-4" cx="2299.95" cy="50.54" r="554.93" gradientTransform="matrix(0.43, 0.11, 0.1, -0.42, -53.8, 562.71)" xlink:href="#radial-gradient"/><radialGradient id="radial-gradient-5" cx="2422.53" cy="-122.09" r="554.93" gradientTransform="matrix(0.41, 0.15, 0.22, -0.6, -186.25, 753.89)" xlink:href="#radial-gradient-2"/><radialGradient id="radial-gradient-6" cx="1807" cy="833.62" r="569.99" gradientTransform="matrix(0.54, 0.21, 0.2, -0.53, -176.76, 688.45)" xlink:href="#radial-gradient-3"/></defs><title>job722-</title><g id="Graphic_Elements" data-name="Graphic Elements"><g id="_3" data-name="3"><path id="G" class="cls-1" d="M559.87,51.49c-10.33-.21-20.88,4.66-26.56,13v.22l-60.77,89.24a292.87,292.87,0,0,0-49.29,0L360.14,68.28c-7.62-10.37-23.64-15.19-36.12-10l-71,29.54a30.37,30.37,0,0,0-18.28,34L254.33,224A294.61,294.61,0,0,0,221.4,257.6L115.16,241.66H115c-12.75-1.84-27.1,4.7-32.73,18.27l-29.53,71-.21.21c-6,14.49-.69,29,11.47,37.19l88,59.28a295.34,295.34,0,0,0,1.27,52.69L69.69,541l-.21.21c-11.18,8.21-16.07,22.48-10.2,36.55l12.53,30.38.21.22,12.33,30.17.21.21c6.23,14.94,19.12,20.73,33.36,18.48h.21l102-16.36a295,295,0,0,0,36.33,37.61L236.69,782.63c-2.72,14.43,4.07,28.52,18.49,34.42l71.18,29.11c13.92,5.68,28.28.71,36.55-10.63l63.31-86.48a294.21,294.21,0,0,0,46.75,0l58.85,86.06c8.54,12.51,23.65,16.57,37.4,10.83l71-29.53a30.7,30.7,0,0,0,18.27-32.93l-16.36-105a293.85,293.85,0,0,0,34.63-35.06l106,20H783c13.39,2.45,27-5.29,32.72-17l.22.21.21-.42c.15-.35.29-.71.42-1.07l.43-.63,28-68.85.22-.21c.39-.69.74-1.4,1.06-2.12a31.26,31.26,0,0,0,1.91-6.8A30.49,30.49,0,0,0,835.67,537l-88-64.17a292.11,292.11,0,0,0,.85-42.92l87.54-60.13c.09-.06.13-.15.21-.21,12.8-8.9,16-24.35,10.63-37.18L830.14,292l-16.78-40.16c-5.44-13.06-18.56-21.48-34-18.49L675,253.35a293.86,293.86,0,0,0-31.23-29.54l16.57-107.94a30.67,30.67,0,0,0-18.69-32.93l-.64-.21-.85-.22-68-28-.43-.21c-.42-.23-.84-.44-1.27-.64l-.43-.21A28.89,28.89,0,0,0,559.87,51.49ZM451.51,338.34a111.76,111.76,0,1,1-43.56,8.5A112.14,112.14,0,0,1,451.51,338.34Z"/><path id="H" class="cls-2" d="M262.15,109.45a7.26,7.26,0,0,0-4.21,8l22.16,115.3a272.55,272.55,0,0,0-49.56,50.15L111.63,264.94a7.24,7.24,0,0,0-7.75,4.21L74.45,340.08a7.36,7.36,0,0,0,2.66,8.72L176,415.42c-3.07,24.82-2.18,50.58,1.82,75.93L83.57,560.12A7.52,7.52,0,0,0,81,568.75l12.68,30.44,12.69,30.43a7.5,7.5,0,0,0,8,4.21l115.18-18.51c15.19,20.69,32.85,39.45,52.64,54.75l-22.3,117.12a7.37,7.37,0,0,0,4.33,8l71.09,29a7.25,7.25,0,0,0,8.45-2.53l71-97.09a273.22,273.22,0,0,0,70.51.11l66.28,96.91a7.27,7.27,0,0,0,8.64,2.63L631,794.72a6.93,6.93,0,0,0,4-7.59l-18.21-117.6a271.5,271.5,0,0,0,50.89-51.69l119.42,22.33A7,7,0,0,0,794.9,636l.16-.39,28.87-70.7.44-.51a6,6,0,0,0,.38-1.47,6.93,6.93,0,0,0-2.8-6.7L723.05,484a270,270,0,0,0,1.46-66.49L823,350.26c2.74-1.87,3.51-5.72,2.23-8.79l-16.75-40.21L791.7,261.05c-1.28-3.07-4.56-5.24-7.82-4.61L666.79,279a270.46,270.46,0,0,0-48.25-45.77l18.37-121a6.94,6.94,0,0,0-2.79-6.7,6,6,0,0,0-1.3-.77l-.68,0L561.61,75.43l-.4-.17a7,7,0,0,0-8.44,2.54L484.55,178.33a271.32,271.32,0,0,0-72.53-.25L341.31,82.36a6.93,6.93,0,0,0-8.24-2.47ZM398.91,325.13a135.52,135.52,0,1,1-73,177.23A135.57,135.57,0,0,1,398.91,325.13Z"/><path id="I" class="cls-3" d="M262.15,109.45a7.26,7.26,0,0,0-4.21,8l22.16,115.3a272.55,272.55,0,0,0-49.56,50.15L111.63,264.94a7.24,7.24,0,0,0-7.75,4.21L74.45,340.08a7.36,7.36,0,0,0,2.66,8.72L176,415.42c-3.07,24.82-2.18,50.58,1.82,75.93L83.57,560.12A7.52,7.52,0,0,0,81,568.75l12.68,30.44,12.69,30.43a7.5,7.5,0,0,0,8,4.21l115.18-18.51c15.19,20.69,32.85,39.45,52.64,54.75l-22.3,117.12a7.37,7.37,0,0,0,4.33,8l71.09,29a7.25,7.25,0,0,0,8.45-2.53l71-97.09a273.22,273.22,0,0,0,70.51.11l66.28,96.91a7.27,7.27,0,0,0,8.64,2.63L631,794.72a6.93,6.93,0,0,0,4-7.59l-18.21-117.6a271.5,271.5,0,0,0,50.89-51.69l119.42,22.33A7,7,0,0,0,794.9,636l.16-.39,28.87-70.7.44-.51a6,6,0,0,0,.38-1.47,6.93,6.93,0,0,0-2.8-6.7L723.05,484a270,270,0,0,0,1.46-66.49L823,350.26c2.74-1.87,3.51-5.72,2.23-8.79l-16.75-40.21L791.7,261.05c-1.28-3.07-4.56-5.24-7.82-4.61L666.79,279a270.46,270.46,0,0,0-48.25-45.77l18.37-121a6.94,6.94,0,0,0-2.79-6.7,6,6,0,0,0-1.3-.77l-.68,0L561.61,75.43l-.4-.17a7,7,0,0,0-8.44,2.54L484.55,178.33a271.32,271.32,0,0,0-72.53-.25L341.31,82.36a6.93,6.93,0,0,0-8.24-2.47ZM398.91,325.13a135.52,135.52,0,1,1-73,177.23A135.57,135.57,0,0,1,398.91,325.13Z"/><path id="J" class="cls-4" d="M560.08,86.55l-66.71,98A10.86,10.86,0,0,1,483,189.18a258.9,258.9,0,0,0-69.47-.21,10.86,10.86,0,0,1-10.2-4.47L334.43,91.23,269.2,118.42l21.46,112.19a10.85,10.85,0,0,1-4,10.63,261,261,0,0,0-47.39,48.23,10.87,10.87,0,0,1-10.41,4.25L112.61,276.29l-27,65,96.47,65.23a10.85,10.85,0,0,1,4.67,10.2,263,263,0,0,0,1.7,72.88A10.85,10.85,0,0,1,184.21,500l-92,67.14L103.68,595v.21l11.48,27.62,112.61-18.06A10.87,10.87,0,0,1,238.18,609a262.39,262.39,0,0,0,50.57,52.48,10.88,10.88,0,0,1,4,10.63L271.12,786.45l65.44,26.77,69.48-95a10.87,10.87,0,0,1,10.2-4.47,259.08,259.08,0,0,0,67.35.22A10.85,10.85,0,0,1,494,718.67l64.6,94.55L624,785.81,606.19,671.29a10.88,10.88,0,0,1,4-10.2,262.13,262.13,0,0,0,48.87-49.93,10.86,10.86,0,0,1,10.62-4L786.16,629l27-65.87-96.46-70.33a10.86,10.86,0,0,1-4.46-10.2,260.47,260.47,0,0,0,1.48-64,10.86,10.86,0,0,1,4.68-10L814.21,343,798.48,305.4l-15.72-37.61L668.87,289.68a10.85,10.85,0,0,1-10.62-3.82,258.15,258.15,0,0,0-46.11-44,10.87,10.87,0,0,1-4.46-10.41l18.06-117.92ZM451.72,303.92c57,.31,111.21,34,134.5,89.87,31,74.49-4.36,160.41-78.83,191.45S347,581.09,316,506.62s4.14-160.4,78.61-191.44A146.28,146.28,0,0,1,451.72,303.92Z"/></g><g id="_4" data-name="4"><path id="K" class="cls-5" d="M1041.18,658.69c-6.17-2.48-13.64-2-19,1.74,0,.05,0,.09-.05.13l-56.95,39.89a189.14,189.14,0,0,0-29.69-11.25l-18.47-66c-2.22-8-10.77-14.54-19.48-14.25l-49.47,1.6a19.55,19.55,0,0,0-18.76,16.3l-11.54,66a191.44,191.44,0,0,0-27.49,12.71L730,671.78l-.13,0A19.85,19.85,0,0,0,706,675.27l-34,36-.18.08c-6.91,7.36-7,17.29-1.57,25l39.46,55.77a189.81,189.81,0,0,0-11.25,32l-64.15,17.56-.18.07a19.37,19.37,0,0,0-14.48,19.69l.62,21.16.08.17.54,21a1.42,1.42,0,0,1,.08.18c.34,10.41,6.79,16.85,15.88,18.74l.12,0,65.16,13.41a189.44,189.44,0,0,0,13.3,30.93l-35.65,58.2c-4.93,8.07-4,18.1,3.28,24.94L719.3,1084a19.51,19.51,0,0,0,24.43,1.94l57.86-37.64A190.35,190.35,0,0,0,829.74,1059l15.82,65.25a19.44,19.44,0,0,0,20.05,15l49.48-1.6A19.76,19.76,0,0,0,933.6,1122l14.09-67a189.5,189.5,0,0,0,28.85-13.21l59.3,36.21.13,0c7.5,4.53,17.49,3,23.58-2.77l.08.17.22-.21a6.39,6.39,0,0,0,.5-.54c.14-.09.27-.19.4-.29l32.6-35.06.17-.08a13.8,13.8,0,0,0,1.13-1,20.56,20.56,0,0,0,2.7-3.66,19.65,19.65,0,0,0-.81-20.65l-38.34-58.71a188.86,188.86,0,0,0,10.3-25.65l66.43-16.25c.07,0,.11-.06.18-.08a19.56,19.56,0,0,0,14.88-20l-.9-28.14-.95-28c-.3-9.1-6.28-17.17-16.26-18.89l-67.38-11.76a189.61,189.61,0,0,0-12.08-24.91l34.6-61.23a19.76,19.76,0,0,0-3.75-24.1l-.33-.27-.46-.32-34.56-32.4-.2-.23c-.2-.23-.41-.45-.63-.67-.06-.08-.13-.15-.2-.23A18.46,18.46,0,0,0,1041.18,658.69Zm-130.68,148a72,72,0,1,1-28.17-4.82A71.5,71.5,0,0,1,910.5,806.72Z"/><path id="L" class="cls-6" d="M848.66,625.69a4.65,4.65,0,0,0-4.35,3.84L831.36,704a175.4,175.4,0,0,0-41.29,18.9L722.55,685a4.67,4.67,0,0,0-5.62.77l-33.91,36a4.74,4.74,0,0,0-.39,5.86L727,790.3a176.24,176.24,0,0,0-16.22,46.14l-72.44,19.92a4.84,4.84,0,0,0-3.55,4.6l.7,21.22.69,21.23a4.84,4.84,0,0,0,3.85,4.35l73.59,15.13a176.53,176.53,0,0,0,19.21,45l-40.14,65.44a4.74,4.74,0,0,0,.78,5.82l36.19,33.7a4.66,4.66,0,0,0,5.66.4L800.19,1031a176,176,0,0,0,42.44,16.15l17.82,73.48a4.66,4.66,0,0,0,4.6,3.55l49.45-1.62a4.47,4.47,0,0,0,4.17-3.65l15.86-75A174.14,174.14,0,0,0,977,1024.36l66.83,40.68a4.47,4.47,0,0,0,5.63-.77l.19-.2,33.51-36,.38-.21a3.91,3.91,0,0,0,.56-.79,4.49,4.49,0,0,0-.16-4.68l-43.1-66a174,174,0,0,0,16-39.71l74.64-18a4.72,4.72,0,0,0,3.35-4.79l-.92-28-.92-28a4.72,4.72,0,0,0-3.66-4.55l-75.67-13.11a174.08,174.08,0,0,0-18.61-38.57l38.67-68.71a4.48,4.48,0,0,0-.15-4.67,4.42,4.42,0,0,0-.61-.76l-.4-.18-35.8-33.71-.2-.19a4.49,4.49,0,0,0-5.67-.4l-64,45a174.46,174.46,0,0,0-43.63-16.69l-20.74-73.78a4.45,4.45,0,0,0-4.4-3.36Zm33.17,161.08a87.27,87.27,0,1,1-84.36,90.09A87.3,87.3,0,0,1,881.83,786.77Z"/><path id="M" class="cls-7" d="M848.66,625.69a4.65,4.65,0,0,0-4.35,3.84L831.36,704a175.4,175.4,0,0,0-41.29,18.9L722.55,685a4.67,4.67,0,0,0-5.62.77l-33.91,36a4.74,4.74,0,0,0-.39,5.86L727,790.3a176.24,176.24,0,0,0-16.22,46.14l-72.44,19.92a4.84,4.84,0,0,0-3.55,4.6l.7,21.22.69,21.23a4.84,4.84,0,0,0,3.85,4.35l73.59,15.13a176.53,176.53,0,0,0,19.21,45l-40.14,65.44a4.74,4.74,0,0,0,.78,5.82l36.19,33.7a4.66,4.66,0,0,0,5.66.4L800.19,1031a176,176,0,0,0,42.44,16.15l17.82,73.48a4.66,4.66,0,0,0,4.6,3.55l49.45-1.62a4.47,4.47,0,0,0,4.17-3.65l15.86-75A174.14,174.14,0,0,0,977,1024.36l66.83,40.68a4.47,4.47,0,0,0,5.63-.77l.19-.2,33.51-36,.38-.21a3.91,3.91,0,0,0,.56-.79,4.49,4.49,0,0,0-.16-4.68l-43.1-66a174,174,0,0,0,16-39.71l74.64-18a4.72,4.72,0,0,0,3.35-4.79l-.92-28-.92-28a4.72,4.72,0,0,0-3.66-4.55l-75.67-13.11a174.08,174.08,0,0,0-18.61-38.57l38.67-68.71a4.48,4.48,0,0,0-.15-4.67,4.42,4.42,0,0,0-.61-.76l-.4-.18-35.8-33.71-.2-.19a4.49,4.49,0,0,0-5.67-.4l-64,45a174.46,174.46,0,0,0-43.63-16.69l-20.74-73.78a4.45,4.45,0,0,0-4.4-3.36Zm33.17,161.08a87.27,87.27,0,1,1-84.36,90.09A87.3,87.3,0,0,1,881.83,786.77Z"/><path id="N" class="cls-8" d="M1033.31,679.85l-62.52,43.77a7,7,0,0,1-7.33.44,166.72,166.72,0,0,0-41.8-16,7,7,0,0,1-5.12-5L896.35,631.2l-45.48,1.5L838.2,705.16a7,7,0,0,1-4.85,5.47,168.75,168.75,0,0,0-39.54,18.24,7,7,0,0,1-7.24.19l-66-37-31.08,33,43.22,61.28a7,7,0,0,1,.49,7.21,169.07,169.07,0,0,0-15.6,44.28,7,7,0,0,1-4.94,5.3l-70.72,19.45.56,19.38a.69.69,0,0,1-.05.13l.61,19.25L715,916.15a7,7,0,0,1,5.3,4.93,168.69,168.69,0,0,0,18.49,43.14,7,7,0,0,1,0,7.32l-39.13,63.9,33.31,31,63.5-41.35a7,7,0,0,1,7.16-.36,166.89,166.89,0,0,0,40.52,15.49,7,7,0,0,1,5.2,5.19l17.34,71.68,45.66-1.59,15.37-73a7,7,0,0,1,4.76-5.22,168.48,168.48,0,0,0,40.82-18.92,7,7,0,0,1,7.32,0l65.13,39.74,31.27-33.52-42-64.35a7,7,0,0,1-.36-7.16,167.91,167.91,0,0,0,15.48-38.18,7,7,0,0,1,5.09-4.95l72.69-17.68L1127,866l-.89-26.23L1052.5,827a7,7,0,0,1-5.53-4.72,166.2,166.2,0,0,0-17.73-37,7,7,0,0,1-.32-7.29l37.78-66.9ZM918.48,786a94.18,94.18,0,0,1-30.64,182.11c-51.93,1.71-95.66-39.08-97.36-91s39.07-95.65,91-97.36A94.3,94.3,0,0,1,918.48,786Z"/></g></g></svg>